<svg width="2777" height="2777" viewBox="0 0 2777 2777" fill="none" xmlns="http://www.w3.org/2000/svg">
<rect width="2777" height="2777" fill="white"/>
<path d="M581.646 1134.24C679.851 915.779 1137.53 1135.33 1276.35 1229.26C1517.12 1087.76 2134.82 1375.41 2299.28 1569.81C2463.73 1764.2 1846.25 1759.68 1563.3 1627.27C1280.34 1494.87 1337.07 1978.08 994.148 1791.12C651.23 1604.16 458.888 1407.31 581.646 1134.24Z" fill="#6D9BB1"/>
<rect x="746.236" y="771.014" width="1052.66" height="1302.34" rx="100" transform="rotate(-6.39861 746.236 771.014)" fill="#225D7A"/>
<rect x="939" y="808" width="1045" height="1294" rx="96" fill="white" stroke="#D7D7D7" stroke-width="8"/>
<path d="M1615.31 1290.52C1618.28 1292.5 1619.01 1293.74 1619.84 1297.21C1619.21 1305.44 1605.23 1315.35 1599.65 1320.92C1598.36 1322.2 1597.08 1323.48 1595.8 1324.77C1592.66 1327.91 1589.51 1331.06 1586.37 1334.2C1582.6 1337.97 1578.83 1341.74 1575.06 1345.51C1567.68 1352.9 1560.29 1360.28 1552.91 1367.66C1546.45 1374.12 1539.99 1380.58 1533.53 1387.03C1533.11 1387.46 1532.68 1387.89 1532.24 1388.33C1530.5 1390.07 1528.76 1391.81 1527.02 1393.56C1510.7 1409.87 1494.39 1426.18 1478.08 1442.49C1463.58 1456.98 1449.08 1471.48 1434.59 1485.98C1418.3 1502.27 1402.01 1518.56 1385.72 1534.85C1383.98 1536.59 1382.25 1538.32 1380.51 1540.06C1380.08 1540.49 1379.66 1540.91 1379.21 1541.35C1372.76 1547.81 1366.3 1554.27 1359.84 1560.73C1352.5 1568.07 1345.17 1575.41 1337.83 1582.74C1334.08 1586.49 1330.33 1590.23 1326.59 1593.98C1323.17 1597.4 1319.74 1600.83 1316.31 1604.25C1315.07 1605.49 1313.83 1606.74 1312.59 1607.98C1310.91 1609.66 1309.22 1611.34 1307.54 1613.02C1306.81 1613.76 1306.81 1613.76 1306.06 1614.51C1305.39 1615.18 1305.39 1615.18 1304.7 1615.86C1304.32 1616.24 1303.93 1616.63 1303.54 1617.03C1300.95 1619.39 1299 1619.97 1295.51 1619.86C1293.96 1619.57 1293.96 1619.57 1291.65 1618.03C1290.09 1615.7 1289.34 1614.08 1289.56 1611.24C1292.16 1603.24 1303.77 1595.01 1309.62 1589.17C1310.9 1587.89 1312.19 1586.6 1313.47 1585.32C1316.61 1582.17 1319.76 1579.03 1322.9 1575.89C1326.67 1572.12 1330.44 1568.35 1334.21 1564.58C1341.59 1557.19 1348.97 1549.81 1356.36 1542.42C1362.82 1535.97 1369.28 1529.51 1375.73 1523.05C1376.38 1522.41 1376.38 1522.41 1377.03 1521.75C1378.77 1520.01 1380.51 1518.27 1382.25 1516.53C1398.56 1500.22 1414.88 1483.91 1431.19 1467.6C1445.69 1453.1 1460.19 1438.61 1474.68 1424.11C1490.97 1407.81 1507.26 1391.52 1523.55 1375.23C1525.29 1373.5 1527.02 1371.76 1528.76 1370.03C1529.19 1369.6 1529.61 1369.17 1530.05 1368.73C1536.51 1362.27 1542.97 1355.82 1549.43 1349.36C1556.76 1342.02 1564.1 1334.68 1571.44 1327.35C1575.19 1323.6 1578.93 1319.86 1582.68 1316.11C1586.1 1312.68 1589.53 1309.26 1592.95 1305.84C1594.2 1304.59 1595.44 1303.35 1596.68 1302.11C1598.36 1300.42 1600.04 1298.74 1601.73 1297.06C1602.22 1296.57 1602.71 1296.08 1603.21 1295.58C1603.66 1295.13 1604.1 1294.69 1604.57 1294.23C1604.95 1293.84 1605.33 1293.46 1605.73 1293.06C1608.7 1290.35 1611.43 1289.8 1615.31 1290.52Z" fill="#225D7A"/>
<path d="M1595.32 1355.34C1596.63 1355.37 1597.93 1355.39 1599.24 1355.4C1609.52 1355.6 1618.62 1356.83 1626.11 1364.55C1631.03 1370.47 1632.62 1376.44 1632.56 1384.05C1632.56 1384.74 1632.56 1385.44 1632.57 1386.15C1632.58 1388.46 1632.57 1390.76 1632.56 1393.07C1632.56 1394.73 1632.57 1396.39 1632.57 1398.05C1632.58 1402.54 1632.58 1407.04 1632.57 1411.53C1632.57 1416.25 1632.57 1420.96 1632.58 1425.67C1632.58 1433.58 1632.57 1441.49 1632.56 1449.4C1632.55 1458.54 1632.55 1467.68 1632.57 1476.82C1632.58 1484.67 1632.58 1492.53 1632.57 1500.38C1632.57 1505.07 1632.57 1509.76 1632.58 1514.44C1632.58 1518.85 1632.58 1523.26 1632.57 1527.67C1632.56 1529.28 1632.56 1530.9 1632.57 1532.51C1632.57 1534.72 1632.57 1536.93 1632.56 1539.14C1632.56 1539.77 1632.57 1540.41 1632.57 1541.06C1632.49 1548.75 1629.91 1554.72 1624.56 1560.23C1617.28 1566.33 1610.01 1567.51 1600.72 1567.45C1599.73 1567.45 1598.75 1567.45 1597.73 1567.45C1595 1567.46 1592.28 1567.45 1589.55 1567.44C1586.61 1567.43 1583.66 1567.43 1580.72 1567.43C1575.62 1567.43 1570.52 1567.43 1565.42 1567.41C1558.05 1567.39 1550.68 1567.39 1543.31 1567.38C1531.35 1567.38 1519.4 1567.36 1507.44 1567.34C1495.82 1567.32 1484.21 1567.3 1472.59 1567.3C1471.88 1567.29 1471.16 1567.29 1470.42 1567.29C1466.83 1567.29 1463.24 1567.29 1459.64 1567.28C1429.85 1567.26 1400.05 1567.22 1370.25 1567.17C1370.55 1566.83 1370.85 1566.49 1371.15 1566.15C1373.05 1563.96 1374.83 1561.85 1376.42 1559.43C1378.95 1556.08 1381.21 1553.8 1385.39 1552.82C1391.33 1552.08 1397.3 1552.2 1403.27 1552.29C1406.01 1552.33 1408.75 1552.31 1411.5 1552.3C1416.24 1552.29 1420.99 1552.31 1425.73 1552.35C1432.6 1552.41 1439.47 1552.42 1446.33 1552.42C1457.49 1552.41 1468.64 1552.44 1479.79 1552.5C1490.61 1552.55 1501.42 1552.6 1512.23 1552.62C1512.9 1552.62 1513.57 1552.63 1514.25 1552.63C1521.53 1552.65 1528.81 1552.66 1536.09 1552.67C1537.05 1552.67 1537.05 1552.67 1538.03 1552.67C1540.59 1552.67 1543.14 1552.68 1545.7 1552.68C1553.18 1552.68 1560.67 1552.7 1568.15 1552.75C1572.84 1552.77 1577.53 1552.79 1582.22 1552.8C1584.93 1552.8 1587.64 1552.81 1590.34 1552.84C1593.28 1552.86 1596.21 1552.87 1599.15 1552.87C1600 1552.88 1600.85 1552.89 1601.73 1552.9C1606.57 1552.88 1610.66 1552.56 1614.54 1549.44C1617.82 1545.79 1618.06 1541.9 1618.01 1537.18C1618.02 1536.5 1618.02 1535.83 1618.03 1535.13C1618.04 1532.88 1618.03 1530.63 1618.02 1528.38C1618.02 1526.77 1618.03 1525.15 1618.04 1523.53C1618.05 1519.15 1618.04 1514.76 1618.03 1510.38C1618.03 1505.79 1618.03 1501.2 1618.04 1496.61C1618.04 1488.9 1618.04 1481.19 1618.02 1473.48C1618.01 1464.57 1618.01 1455.66 1618.03 1446.75C1618.04 1439.1 1618.04 1431.45 1618.04 1423.79C1618.03 1419.22 1618.03 1414.65 1618.04 1410.08C1618.05 1405.79 1618.04 1401.49 1618.02 1397.2C1618.02 1395.62 1618.02 1394.04 1618.03 1392.47C1618.04 1390.32 1618.03 1388.16 1618.01 1386.01C1618.02 1385.39 1618.03 1384.77 1618.03 1384.13C1617.97 1379.81 1616.97 1377.31 1614.54 1373.74C1610.22 1369.85 1604.3 1370.2 1598.84 1370.19C1597.94 1370.18 1597.04 1370.17 1596.12 1370.15C1593.27 1370.12 1590.42 1370.1 1587.57 1370.08C1585.63 1370.06 1583.69 1370.04 1581.75 1370.01C1577.01 1369.96 1572.27 1369.92 1567.53 1369.89C1567.82 1369.55 1568.11 1369.22 1568.41 1368.87C1570.32 1366.66 1572.18 1364.46 1573.94 1362.14C1580.16 1354.71 1586.08 1354.91 1595.32 1355.34Z" fill="#225D7A"/>
<path d="M1416.48 1316.6C1417.29 1316.59 1418.1 1316.59 1418.94 1316.58C1419.83 1316.58 1420.73 1316.57 1421.65 1316.57C1423.06 1316.56 1423.06 1316.56 1424.5 1316.55C1427.62 1316.53 1430.74 1316.52 1433.86 1316.51C1434.94 1316.5 1436.01 1316.5 1437.09 1316.49C1441.56 1316.48 1446.03 1316.46 1450.5 1316.45C1456.91 1316.44 1463.32 1316.42 1469.72 1316.37C1474.23 1316.34 1478.73 1316.33 1483.24 1316.32C1485.93 1316.32 1488.62 1316.31 1491.31 1316.29C1494.31 1316.26 1497.32 1316.26 1500.32 1316.27C1501.21 1316.26 1502.1 1316.24 1503.01 1316.23C1509.74 1316.28 1509.74 1316.28 1512.49 1318.49C1513.98 1320.14 1515.36 1321.7 1516.58 1323.55C1516.95 1324.11 1517.32 1324.67 1517.7 1325.24C1518.08 1325.82 1518.46 1326.41 1518.85 1327.02C1519.26 1327.63 1519.66 1328.24 1520.08 1328.87C1521.36 1330.8 1522.63 1332.74 1523.89 1334.68C1524.76 1336 1525.63 1337.32 1526.5 1338.64C1528.63 1341.86 1530.74 1345.08 1532.85 1348.31C1531.48 1351.28 1529.71 1353.15 1527.36 1355.44C1526.66 1356.13 1525.96 1356.82 1525.24 1357.52C1524.43 1358.3 1524.43 1358.3 1523.6 1359.1C1522.84 1358.85 1522.08 1358.59 1521.29 1358.33C1520.63 1356.98 1519.98 1355.62 1519.4 1354.23C1515.7 1345.45 1510.55 1334.63 1501.51 1330.39C1490.6 1326.73 1478.6 1327.18 1467.24 1327.46C1463.39 1327.55 1459.58 1327.51 1455.73 1327.32C1435.27 1325.83 1435.27 1325.83 1416.75 1332.95C1408.49 1340.99 1403.09 1351.44 1398.26 1361.78C1396.55 1365.32 1394.67 1368.08 1391.06 1369.89C1388.67 1369.97 1386.3 1370 1383.91 1370C1382.79 1370 1382.79 1370 1381.66 1370.01C1380.04 1370.01 1378.43 1370.02 1376.81 1370.02C1374.25 1370.03 1371.69 1370.04 1369.14 1370.05C1361.86 1370.09 1354.58 1370.13 1347.3 1370.14C1342.85 1370.15 1338.4 1370.17 1333.96 1370.2C1332.26 1370.21 1330.57 1370.22 1328.87 1370.22C1326.5 1370.21 1324.12 1370.23 1321.75 1370.25C1321.05 1370.25 1320.35 1370.24 1319.64 1370.24C1315.29 1370.3 1311.23 1370.82 1307.83 1373.74C1304.87 1377.91 1304.3 1380.97 1304.36 1386.01C1304.35 1386.68 1304.35 1387.36 1304.34 1388.05C1304.33 1390.3 1304.34 1392.55 1304.35 1394.8C1304.35 1396.42 1304.34 1398.04 1304.33 1399.65C1304.32 1404.04 1304.33 1408.42 1304.34 1412.81C1304.34 1417.4 1304.34 1421.99 1304.33 1426.58C1304.33 1434.29 1304.33 1442 1304.35 1449.71C1304.36 1458.62 1304.36 1467.53 1304.34 1476.44C1304.33 1484.09 1304.33 1491.74 1304.33 1499.39C1304.34 1503.96 1304.34 1508.53 1304.33 1513.1C1304.32 1517.4 1304.33 1521.7 1304.34 1525.99C1304.35 1527.57 1304.35 1529.14 1304.34 1530.72C1304.33 1532.87 1304.34 1535.02 1304.36 1537.18C1304.35 1537.8 1304.34 1538.42 1304.34 1539.06C1304.4 1543.37 1305.39 1545.88 1307.83 1549.44C1311.78 1552.82 1316.73 1553.02 1321.7 1553.1C1322.37 1553.13 1323.04 1553.15 1323.74 1553.17C1325.37 1553.23 1327 1553.26 1328.64 1553.3C1327.1 1555.1 1325.56 1556.9 1324.01 1558.69C1323.66 1559.1 1323.31 1559.52 1322.95 1559.94C1317.13 1566.69 1317.13 1566.69 1313.77 1567.7C1311.82 1567.58 1310.41 1567.14 1308.6 1566.4C1307.84 1566.1 1307.09 1565.81 1306.31 1565.5C1298.71 1562.12 1293.91 1557.2 1290.88 1549.44C1289.94 1546.18 1289.99 1542.98 1289.99 1539.61C1289.99 1538.92 1289.99 1538.23 1289.99 1537.52C1289.98 1535.2 1289.97 1532.89 1289.97 1530.57C1289.97 1528.91 1289.96 1527.25 1289.96 1525.6C1289.94 1520.15 1289.93 1514.7 1289.92 1509.25C1289.92 1507.37 1289.92 1505.49 1289.91 1503.62C1289.9 1494.8 1289.89 1485.98 1289.88 1477.16C1289.88 1466.99 1289.85 1456.81 1289.82 1446.64C1289.8 1438.77 1289.79 1430.9 1289.79 1423.04C1289.78 1418.34 1289.78 1413.64 1289.76 1408.94C1289.74 1404.52 1289.74 1400.1 1289.75 1395.68C1289.75 1394.06 1289.74 1392.44 1289.73 1390.82C1289.66 1380.12 1289.96 1371.09 1297.81 1362.95C1306.55 1355.56 1315.18 1355.88 1326 1356.64C1359.41 1360.52 1359.41 1360.52 1390.42 1352.04C1398.21 1345.1 1402.7 1335.45 1405.9 1325.67C1407.77 1320.16 1410.42 1316.64 1416.48 1316.6Z" fill="#225D7A"/>
<path d="M1522.83 1415.36C1529.59 1428.27 1533.94 1440.08 1533.86 1454.85C1533.86 1455.7 1533.85 1456.54 1533.85 1457.41C1533.56 1476.97 1525.58 1493.84 1512.05 1507.83C1497.55 1521.67 1478.25 1528.37 1458.38 1528.03C1444.86 1527.54 1432.73 1523 1421.11 1516.31C1424.28 1512.52 1427.59 1508.97 1431.13 1505.52C1432.35 1506.06 1432.35 1506.06 1433.59 1506.62C1449.09 1513.38 1464.17 1515.58 1480.6 1510.09C1496.46 1503.82 1507.4 1493.75 1514.71 1478.32C1520.68 1464.44 1520.84 1448.84 1515.9 1434.62C1514.88 1432.32 1513.83 1430.08 1512.63 1427.87C1512.05 1426.15 1512.05 1426.15 1512.47 1424.63C1513.95 1422.55 1515.63 1420.81 1517.44 1419.02C1518.46 1417.99 1518.46 1417.99 1519.51 1416.93C1521.29 1415.36 1521.29 1415.36 1522.83 1415.36Z" fill="#225D7A"/>
<path d="M1491.24 1388.39C1492 1389.15 1492 1389.15 1492.78 1389.93C1484.48 1399.63 1484.48 1399.63 1480.71 1400.32C1478.71 1399.86 1476.94 1399.18 1475.06 1398.4C1458.11 1394.68 1442.66 1398 1427.95 1406.94C1415.21 1415.47 1406.8 1429.11 1403.75 1444.08C1402.71 1452.27 1402.36 1460.55 1405.01 1468.43C1405.94 1471.22 1406.44 1473.24 1406.47 1476.24C1404.22 1480.49 1400.32 1483.52 1396.45 1486.25C1395.94 1486.25 1395.44 1486.25 1394.91 1486.25C1386.86 1467.38 1385.88 1446.29 1393.56 1427.11C1401.13 1409.29 1414.86 1395.26 1432.67 1387.61C1451.62 1380.18 1472.57 1380.08 1491.24 1388.39Z" fill="#225D7A"/>
<path d="M1573.8 1397.42C1576.77 1399.45 1578.71 1401.9 1579.86 1405.34C1580.46 1410.19 1580.1 1413.89 1577.19 1417.9C1574.64 1420.72 1572.36 1422.04 1568.57 1422.58C1563.7 1422.79 1560.61 1422.21 1556.74 1419.21C1553.21 1414.66 1552.37 1410.96 1552.89 1405.34C1554.48 1400.74 1557.47 1398.13 1561.7 1395.85C1566.29 1394.62 1569.71 1395.19 1573.8 1397.42Z" fill="#225D7A"/>
<path d="M2155.09 859.636V799.636H2165.27V859.636H2155.09ZM2130.18 834.727V824.545H2190.18V834.727H2130.18Z" fill="#225D7A"/>
<path d="M2075.64 1245.73C2073.39 1245.73 2071.47 1244.92 2069.86 1243.32C2068.26 1241.71 2067.45 1239.79 2067.45 1237.55C2067.45 1235.3 2068.26 1233.38 2069.86 1231.77C2071.47 1230.17 2073.39 1229.36 2075.64 1229.36C2077.88 1229.36 2079.8 1230.17 2081.41 1231.77C2083.02 1233.38 2083.82 1235.3 2083.82 1237.55C2083.82 1239.03 2083.44 1240.39 2082.68 1241.64C2081.95 1242.88 2080.97 1243.88 2079.73 1244.64C2078.52 1245.36 2077.15 1245.73 2075.64 1245.73Z" fill="#225D7A"/>
<path d="M812.636 2135.73C810.394 2135.73 808.47 2134.92 806.864 2133.32C805.258 2131.71 804.455 2129.79 804.455 2127.55C804.455 2125.3 805.258 2123.38 806.864 2121.77C808.47 2120.17 810.394 2119.36 812.636 2119.36C814.879 2119.36 816.803 2120.17 818.409 2121.77C820.015 2123.38 820.818 2125.3 820.818 2127.55C820.818 2129.03 820.439 2130.39 819.682 2131.64C818.955 2132.88 817.97 2133.88 816.727 2134.64C815.515 2135.36 814.152 2135.73 812.636 2135.73Z" fill="#225D7A"/>
<path d="M1279.64 602.727C1277.39 602.727 1275.47 601.924 1273.86 600.318C1272.26 598.712 1271.45 596.788 1271.45 594.545C1271.45 592.303 1272.26 590.379 1273.86 588.773C1275.47 587.167 1277.39 586.364 1279.64 586.364C1281.88 586.364 1283.8 587.167 1285.41 588.773C1287.02 590.379 1287.82 592.303 1287.82 594.545C1287.82 596.03 1287.44 597.394 1286.68 598.636C1285.95 599.879 1284.97 600.879 1283.73 601.636C1282.52 602.364 1281.15 602.727 1279.64 602.727Z" fill="#225D7A"/>
<path d="M629.091 883.636V823.636H639.273V883.636H629.091ZM604.182 858.727V848.545H664.182V858.727H604.182Z" fill="#225D7A"/>
<path d="M2290.09 2004.64V1944.64H2300.27V2004.64H2290.09ZM2265.18 1979.73V1969.55H2325.18V1979.73H2265.18Z" fill="#225D7A"/>
<ellipse cx="1454.5" cy="2263" rx="631.5" ry="37" fill="#BDCED7"/>
</svg>
