<svg width="100" height="100" viewBox="0 0 100 100" fill="none" xmlns="http://www.w3.org/2000/svg">
<path d="M25.561 3.88646C26.2452 3.88634 26.9294 3.88622 27.6343 3.8861C29.8526 3.88685 32.0708 3.89447 34.2891 3.90233C35.6571 3.9038 37.0252 3.90482 38.3933 3.90539C43.4706 3.91063 48.5478 3.92459 53.625 3.93749C70.6406 3.96843 70.6406 3.96843 88 3.99999C88 28.42 88 52.84 88 78C56.3125 78.375 56.3125 78.375 46.3254 78.478C43.713 78.5132 41.1007 78.5491 38.4883 78.5859C37.4753 78.5942 37.4753 78.5942 36.4419 78.6027C34.4421 78.6198 32.4423 78.6503 30.4426 78.6811C29.3168 78.6945 28.1909 78.7078 27.031 78.7215C23.7262 79.0251 20.4342 79.5658 18 82C17.7499 84.9582 17.7499 84.9582 18 88C21.5499 91.5499 25.4843 91.1386 30.3291 91.2053C32.2506 91.2352 32.2506 91.2352 34.211 91.2658C35.6042 91.2827 36.9974 91.2996 38.3906 91.3164C39.8198 91.337 41.249 91.358 42.6782 91.3794C46.4329 91.4345 50.1878 91.4839 53.9426 91.5322C57.7769 91.5825 61.6111 91.6382 65.4453 91.6934C72.9635 91.8008 80.4817 91.9023 88 92C88 93.32 88 94.64 88 96C79.0899 96.0695 70.1799 96.1228 61.2696 96.1554C57.132 96.1711 52.9946 96.1923 48.8572 96.2263C44.8631 96.2589 40.8692 96.2769 36.8749 96.2846C35.3523 96.2902 33.8297 96.301 32.3072 96.3172C30.1718 96.339 28.0371 96.342 25.9016 96.3406C24.0796 96.3506 24.0796 96.3506 22.2208 96.3608C18.665 95.9625 16.8318 95.1509 14 93C11.5827 89.374 11.6975 86.6948 11.6936 82.5027C11.6853 81.7413 11.677 80.98 11.6684 80.1956C11.6443 77.6759 11.6355 75.1565 11.6289 72.6367C11.6199 70.8842 11.6108 69.1316 11.6015 67.3791C11.585 63.703 11.5774 60.027 11.5745 56.3508C11.5691 51.6463 11.5314 46.9426 11.4857 42.2383C11.4559 38.6171 11.4487 34.9961 11.4477 31.3748C11.4435 29.6409 11.4311 27.907 11.4102 26.1732C11.3833 23.7433 11.3881 21.3154 11.4006 18.8855C11.3858 18.1731 11.371 17.4606 11.3557 16.7266C11.4378 11.1002 13.1612 8.8123 17 4.99999C19.8774 3.56127 22.3457 3.88062 25.561 3.88646ZM18 11C15.8548 14.6381 15.7554 17.9103 15.7729 22.0754C15.7731 23.2763 15.7733 24.4772 15.7734 25.7144C15.7837 27.001 15.7941 28.2877 15.8047 29.6133C15.8084 30.9513 15.8113 32.2894 15.8133 33.6275C15.8209 37.1374 15.8405 40.6472 15.8627 44.157C15.8832 47.7433 15.8923 51.3297 15.9023 54.916C15.9237 61.9441 15.9579 68.972 16 76C17.485 75.505 17.485 75.505 19 75C21.1003 74.8825 23.204 74.8232 25.3074 74.7947C27.2863 74.7644 27.2863 74.7644 29.3053 74.7335C30.7074 74.7167 32.1096 74.7001 33.5117 74.6836C35.4239 74.6556 35.4239 74.6556 37.3746 74.6271C42.1455 74.5587 46.9165 74.4986 51.6875 74.4375C62.3506 74.2931 73.0137 74.1487 84 74C84 52.22 84 30.44 84 7.99999C74.2238 7.93812 64.4475 7.87624 54.375 7.81249C51.2972 7.78518 48.2194 7.75787 45.0483 7.72973C42.6025 7.72096 40.1567 7.71332 37.7109 7.70702C36.4461 7.69167 35.1813 7.67633 33.8782 7.66051C32.6607 7.66015 31.4433 7.65979 30.189 7.65941C29.1364 7.65275 28.0838 7.64609 26.9994 7.63923C23.3715 8.07559 21.0576 8.99986 18 11Z" fill="white"/>
<path d="M31.5039 17.8706C32.9404 17.8659 32.9404 17.8659 34.406 17.8611C35.4476 17.8631 36.4893 17.8651 37.5625 17.8672C38.6241 17.8662 39.6857 17.8653 40.7795 17.8643C43.0291 17.8636 45.2787 17.8655 47.5283 17.8696C50.9851 17.875 54.4417 17.8697 57.8984 17.8633C60.0781 17.8639 62.2578 17.8652 64.4375 17.8672C66 17.8641 66 17.8641 67.594 17.8611C68.5517 17.8642 69.5094 17.8674 70.4961 17.8706C71.3436 17.8714 72.1911 17.8722 73.0642 17.873C75 18 75 18 76 19C76.0991 21.3316 76.1297 23.6663 76.125 26C76.1289 27.9181 76.1289 27.9181 76.1328 29.875C76 33 76 33 75 34C73.5013 34.0983 71.998 34.128 70.4961 34.1294C69.0596 34.1341 69.0596 34.1341 67.594 34.1389C66.5524 34.1369 65.5107 34.1349 64.4375 34.1328C63.3759 34.1338 62.3143 34.1347 61.2205 34.1357C58.9709 34.1364 56.7213 34.1345 54.4717 34.1304C51.0149 34.125 47.5583 34.1303 44.1016 34.1367C41.9219 34.1361 39.7422 34.1348 37.5625 34.1328C36.5209 34.1348 35.4792 34.1369 34.406 34.1389C33.4483 34.1358 32.4906 34.1326 31.5039 34.1294C30.6564 34.1286 29.809 34.1278 28.9358 34.127C27 34 27 34 26 33C25.9009 30.6684 25.8703 28.3337 25.875 26C25.8724 24.7212 25.8698 23.4425 25.8672 22.125C26.0694 17.3663 27.1725 17.8747 31.5039 17.8706ZM30 22C30 24.64 30 27.28 30 30C43.86 30 57.72 30 72 30C72 27.36 72 24.72 72 22C58.14 22 44.28 22 30 22Z" fill="white"/>
</svg>
