<svg width="100" height="100" viewBox="0 0 100 100" fill="none" xmlns="http://www.w3.org/2000/svg">
<g clip-path="url(#clip0_4_231)">
<path d="M62.4649 3.70636C62.9461 4.08501 63.4081 4.47767 63.8672 4.88282C64.0293 5.01927 64.1915 5.15573 64.3585 5.29633C68.3103 8.70259 70.8362 13.5855 71.4844 18.75C71.5022 19.1748 71.5114 19.6 71.5131 20.0252C71.5152 20.3976 71.5152 20.3976 71.5173 20.7775C71.5179 21.0492 71.5184 21.3209 71.5189 21.5926C71.5202 21.8815 71.5215 22.1704 71.5228 22.4593C71.5269 23.4051 71.5289 24.351 71.5309 25.2968C71.5317 25.6241 71.5325 25.9514 71.5333 26.2787C71.537 27.8182 71.5398 29.3576 71.5414 30.8971C71.5433 32.6653 71.5485 34.4335 71.5564 36.2017C71.5623 37.5739 71.5652 38.946 71.5658 40.3182C71.5663 41.1351 71.568 41.9519 71.5729 42.7687C71.6142 49.939 70.2634 55.9506 65.1855 61.2671C60.9041 65.3984 55.2755 67.4702 49.3561 67.4126C42.9253 67.148 37.796 64.3763 33.4473 59.79C32.495 58.7018 31.7621 57.5075 31.0547 56.25C30.8945 55.9664 30.8945 55.9664 30.7312 55.677C29.0555 52.5266 28.455 49.2355 28.462 45.6954C28.4611 45.4057 28.4601 45.1161 28.4589 44.8264C28.4563 44.0455 28.4562 43.2646 28.4567 42.4837C28.4569 41.8286 28.456 41.1734 28.455 40.5183C28.4529 38.9706 28.4528 37.4228 28.454 35.8751C28.4551 34.2863 28.4527 32.6975 28.4486 31.1086C28.4451 29.7378 28.444 28.367 28.4446 26.9961C28.4449 26.1804 28.4445 25.3647 28.4417 24.5489C28.4392 23.7805 28.4397 23.0121 28.4422 22.2437C28.4426 21.9644 28.4421 21.6851 28.4405 21.4058C28.4131 16.3512 30.0291 11.4358 33.3984 7.61719C33.5326 7.45732 33.6668 7.29744 33.8051 7.13272C40.8422 -1.04554 53.6572 -2.46633 62.4649 3.70636ZM38.2812 8.39844C38.1329 8.53062 37.9847 8.6628 37.8319 8.79898C34.9916 11.4823 33.3284 14.9464 32.6172 18.75C32.6172 19.0078 32.6172 19.2656 32.6172 19.5313C32.8487 19.5321 33.0803 19.5329 33.3188 19.5337C34.1798 19.5379 35.0405 19.5486 35.9014 19.5611C36.2736 19.5656 36.6459 19.5684 37.0181 19.5694C37.554 19.5713 38.0895 19.5793 38.6253 19.5885C38.7912 19.5877 38.957 19.5869 39.1279 19.5861C39.9754 19.6069 40.3304 19.6508 41.0246 20.1808C41.5251 20.8659 41.5251 21.2383 41.4062 22.0703C40.9765 22.9688 40.9765 22.9688 40.4297 23.2422C39.832 23.2729 39.238 23.2927 38.6398 23.304C38.4828 23.3076 38.3258 23.3113 38.164 23.315C37.5765 23.3284 36.9889 23.3401 36.4014 23.3521C34.4315 23.3944 34.4315 23.3944 32.4219 23.4375C32.4219 26.1445 32.4219 28.8516 32.4219 31.6406C35.022 31.6816 35.022 31.6816 37.6222 31.7164C37.9487 31.7227 38.2752 31.7292 38.6017 31.736C38.7706 31.7372 38.9395 31.7384 39.1135 31.7397C40.3026 31.7682 40.3026 31.7682 40.9223 32.0985C41.3605 32.5895 41.4077 33.0206 41.4795 33.667C41.4062 34.375 41.4062 34.375 41.0288 34.8989C40.2063 35.5203 39.5882 35.4943 38.5826 35.4897C38.4262 35.4925 38.2697 35.4954 38.1086 35.4983C37.5273 35.5075 36.946 35.5084 36.3647 35.5103C35.0636 35.5223 33.7624 35.5344 32.4219 35.5469C32.4219 38.2539 32.4219 40.9609 32.4219 43.75C34.9577 43.7987 34.9577 43.7987 37.4937 43.8434C37.8122 43.8503 38.1306 43.8573 38.4491 43.8644C38.6961 43.8678 38.6961 43.8678 38.9481 43.8712C39.1067 43.8751 39.2652 43.879 39.4285 43.883C39.5656 43.8856 39.7026 43.8882 39.8438 43.8909C40.3029 43.9549 40.6188 44.0993 41.0156 44.3359C41.5128 45.0072 41.4915 45.674 41.4062 46.4844C40.9889 47.1464 40.7856 47.4074 40.039 47.6563C39.4776 47.6864 38.9201 47.7065 38.3583 47.7181C38.1944 47.7221 38.0305 47.7262 37.8616 47.7304C37.3383 47.7431 36.8149 47.7546 36.2915 47.7661C35.9366 47.7746 35.5817 47.7831 35.2268 47.7917C34.357 47.8126 33.4871 47.8324 32.6172 47.8516C32.645 48.1294 32.6738 48.4071 32.7029 48.6848C32.7188 48.8395 32.7347 48.9942 32.7511 49.1536C33.3103 53.3039 36.1394 57.3008 39.3901 59.8247C43.3111 62.6705 48.0759 63.9003 52.8717 63.1523C57.5973 62.2803 61.6844 59.6696 64.4842 55.7621C66.0255 53.4993 67.3828 50.6261 67.3828 47.8516C67.0532 47.8473 67.0532 47.8473 66.717 47.8429C65.8998 47.8316 65.0826 47.8165 64.2655 47.8003C63.9122 47.7938 63.5589 47.7883 63.2056 47.7839C62.6969 47.7773 62.1884 47.7671 61.6798 47.7562C61.5225 47.755 61.3652 47.7537 61.2031 47.7524C60.3078 47.7291 59.7103 47.6495 58.9844 47.0703C58.5024 46.3474 58.5337 45.9722 58.5937 45.1172C58.7629 44.5955 58.8691 44.4047 59.3399 44.1239C59.7851 43.9371 60.0916 43.8922 60.5715 43.883C60.73 43.8791 60.8885 43.8752 61.0518 43.8712C61.2165 43.869 61.3812 43.8667 61.5509 43.8644C61.7037 43.861 61.8565 43.8576 62.0139 43.854C62.5828 43.8417 63.1517 43.8327 63.7207 43.8232C64.9936 43.7991 66.2666 43.7749 67.5781 43.75C67.5781 41.043 67.5781 38.3359 67.5781 35.5469C64.9867 35.5213 64.9867 35.5213 62.3953 35.5063C62.0693 35.5011 61.7433 35.4956 61.4174 35.4897C61.1655 35.4908 61.1655 35.4908 60.9086 35.492C60.0479 35.4716 59.6777 35.4332 58.9727 34.8974C58.4755 34.2121 58.4751 33.8382 58.5937 33.0078C59.0234 32.1094 59.0234 32.1094 59.5703 31.8359C60.168 31.8052 60.762 31.7854 61.3602 31.7741C61.5172 31.7705 61.6742 31.7669 61.836 31.7631C62.4235 31.7498 63.0111 31.738 63.5986 31.7261C65.5685 31.6838 65.5685 31.6838 67.5781 31.6406C67.5781 28.9336 67.5781 26.2266 67.5781 23.4375C64.978 23.3965 64.978 23.3965 62.3777 23.3617C62.0512 23.3554 61.7248 23.3489 61.3983 23.3421C61.2294 23.3409 61.0605 23.3397 60.8865 23.3384C59.6974 23.3099 59.6974 23.3099 59.0776 22.9796C58.6394 22.4886 58.5923 22.0575 58.5205 21.4111C58.5937 20.7031 58.5937 20.7031 58.9738 20.1792C59.7853 19.5634 60.3816 19.5839 61.3746 19.5885C61.5467 19.5855 61.7187 19.5826 61.8959 19.5795C62.4432 19.5712 62.9903 19.5694 63.5376 19.5679C63.9095 19.5634 64.2815 19.5584 64.6534 19.553C65.5632 19.5407 66.4729 19.5344 67.3828 19.5313C67.3545 19.2539 67.3256 18.9766 67.2962 18.6994C67.2802 18.5449 67.2641 18.3905 67.2476 18.2314C66.8204 14.9752 65.0666 11.9564 62.8906 9.57032C62.7567 9.41825 62.6227 9.26618 62.4847 9.1095C59.5328 5.93888 55.0669 4.09945 50.7828 3.87574C46.1635 3.75004 41.7445 5.30641 38.2812 8.39844Z" fill="white"/>
<path d="M20.3125 43.75C21.0622 44.0832 21.3731 44.367 21.6797 45.1172C21.7475 45.5594 21.7475 45.5594 21.7758 46.0457C21.7881 46.2269 21.8004 46.408 21.8131 46.5947C21.8254 46.7879 21.8378 46.9811 21.8506 47.1802C22.2467 52.3655 23.7251 57.4378 26.7578 61.7188C26.893 61.9119 27.0282 62.105 27.1675 62.304C30.992 67.5203 36.4681 71.4475 42.7734 73.0469C42.9299 73.0871 43.0863 73.1274 43.2475 73.1688C50.825 75.0261 58.4354 73.5313 65.065 69.6144C68.4831 67.5158 71.5111 64.5323 73.6328 61.1328C73.7074 61.0142 73.782 60.8956 73.8589 60.7733C76.7184 56.1508 78.0386 51.1178 78.2341 45.7077C78.3479 44.9281 78.6107 44.3624 79.248 43.8843C79.8973 43.6859 80.3783 43.6684 81.0547 43.75C81.6327 44.0739 82.1304 44.4521 82.3565 45.0972C83.4012 51.6542 80.0697 59.6136 76.3243 64.7819C75.845 65.4131 75.3319 66.0103 74.8047 66.6016C74.6579 66.7695 74.5111 66.9375 74.3599 67.1105C73.9284 67.598 73.4896 68.0774 73.0469 68.5547C72.9343 68.6801 72.8218 68.8055 72.7058 68.9347C68.2231 73.7069 61.8118 76.5201 55.4687 77.6978C55.3403 77.722 55.2119 77.7463 55.0795 77.7713C54.0015 77.9546 53.0862 77.9297 51.9531 77.9297C51.9531 83.9239 51.9531 89.918 51.9531 96.0938C56.9228 96.0551 56.9228 96.0551 61.8925 96.0058C62.8551 96.0014 62.8551 96.0014 63.3062 96.0006C63.6203 95.9991 63.9343 95.9957 64.2484 95.9907C64.7251 95.9835 65.2014 95.9826 65.6782 95.9829C65.887 95.9776 65.887 95.9777 66.1 95.9723C66.8609 95.9802 67.1628 96.0734 67.7579 96.5646C68.3919 97.3541 68.4455 97.8116 68.3594 98.8282C68.0087 99.3659 67.7632 99.7122 67.1875 100C66.7394 100.02 66.2907 100.027 65.8421 100.029C65.7021 100.029 65.562 100.03 65.4178 100.031C64.9462 100.033 64.4747 100.034 64.0031 100.035C63.666 100.036 63.3288 100.037 62.9917 100.038C62.0741 100.042 61.1564 100.044 60.2387 100.046C59.6657 100.047 59.0927 100.048 58.5197 100.049C56.7278 100.053 54.9359 100.055 53.1439 100.057C51.0738 100.059 49.0037 100.064 46.9335 100.072C45.3345 100.078 43.7355 100.081 42.1365 100.081C41.181 100.082 40.2255 100.084 39.2699 100.089C38.371 100.093 37.4722 100.094 36.5734 100.092C36.2434 100.092 35.9134 100.093 35.5834 100.096C35.133 100.099 34.6828 100.098 34.2323 100.095C33.9802 100.096 33.7281 100.096 33.4684 100.097C32.7009 99.9836 32.3807 99.7601 31.8359 99.2188C31.5367 98.6203 31.5958 98.1218 31.6406 97.461C31.9632 96.7698 32.1711 96.5214 32.8125 96.0938C33.3082 96.0579 33.782 96.0445 34.2775 96.0494C34.4286 96.0494 34.5796 96.0493 34.7353 96.0493C35.2243 96.0496 35.7132 96.0526 36.2022 96.0556C36.5041 96.0562 36.8061 96.0566 37.108 96.0568C38.2274 96.0589 39.3469 96.0643 40.4663 96.0694C42.9679 96.0774 45.4695 96.0855 48.0469 96.0938C48.0469 90.0996 48.0469 84.1055 48.0469 77.9297C47.4023 77.9297 46.7578 77.9297 46.0937 77.9297C45.4143 77.868 44.7502 77.749 44.0796 77.6245C43.8023 77.5731 43.8023 77.5731 43.5194 77.5206C37.1619 76.2661 31.857 73.1228 27.1484 68.75C27.0228 68.6372 26.8972 68.5245 26.7677 68.4082C21.0943 63.0798 18.0404 55.066 17.6147 47.4121C17.6044 47.2376 17.594 47.063 17.5833 46.8832C17.5463 46.01 17.5264 45.3152 17.9687 44.5313C18.7125 43.7451 19.2453 43.6166 20.3125 43.75Z" fill="white"/>
</g>
<defs>
<clipPath id="clip0_4_231">
<rect width="100" height="100" fill="white"/>
</clipPath>
</defs>
</svg>
