<svg width="40" height="40" viewBox="0 0 40 40" fill="none" xmlns="http://www.w3.org/2000/svg">
<g clip-path="url(#clip0_1_67)">
<path d="M14.7126 20.5809C15.3558 21.0037 16.0035 21.3568 16.7188 21.6406C16.7678 21.6601 16.8169 21.6796 16.8674 21.6996C19.2594 22.6227 21.554 22.3324 23.8727 21.3684C24.563 21.0457 25.1889 20.622 25.8188 20.1958C27.2923 19.2072 27.2923 19.2072 28.1055 19.2529C28.165 19.2548 28.2245 19.2566 28.2858 19.2585C30.2602 19.3457 32.1259 20.1487 33.4773 21.612C36.0141 24.526 36.6497 28.6917 36.7188 32.4219C36.7219 32.5164 36.725 32.611 36.7282 32.7084C36.7643 34.4159 36.4329 36.3072 35.2637 37.6221C35.151 37.7388 35.0372 37.8545 34.9219 37.9687C34.8542 38.0396 34.7866 38.1105 34.7168 38.1836C34.6556 38.2416 34.5944 38.2996 34.5313 38.3594C34.4758 38.4128 34.4758 38.4128 34.4193 38.4674C32.8094 39.9422 30.7397 40.0355 28.684 40.0316C28.4729 40.032 28.2618 40.0325 28.0507 40.0332C27.5392 40.0345 27.0277 40.0346 26.5162 40.0342C26.1 40.0339 25.6837 40.034 25.2675 40.0344C25.208 40.0345 25.1485 40.0345 25.0872 40.0346C24.9663 40.0347 24.8454 40.0348 24.7245 40.0349C23.5934 40.036 22.4623 40.0356 21.3313 40.0347C20.2994 40.0339 19.2676 40.0349 18.2357 40.0368C17.1729 40.0387 16.1101 40.0394 15.0474 40.0389C14.452 40.0387 13.8566 40.0388 13.2613 40.0402C12.7544 40.0414 12.2476 40.0414 11.7408 40.04C11.4828 40.0394 11.2249 40.0394 10.967 40.0404C8.70257 40.0488 6.75281 39.6916 5.07816 38.0469C5.01774 37.9884 4.95731 37.9298 4.89506 37.8696C3.78474 36.7231 3.27333 35.1246 3.26542 33.5507C3.26487 33.4786 3.26432 33.4065 3.26376 33.3322C3.26239 33.0988 3.26189 32.8653 3.26176 32.6318C3.2617 32.5522 3.26165 32.4726 3.2616 32.3906C3.26287 31.1855 3.30574 30.0174 3.51566 28.8281C3.5299 28.744 3.54414 28.6598 3.55881 28.5731C3.98187 26.1037 4.71601 23.756 6.32816 21.7969C6.36986 21.7432 6.41155 21.6895 6.45451 21.6342C7.53186 20.286 9.32726 19.5095 11.0086 19.3138C12.5611 19.1533 13.4453 19.7393 14.7126 20.5809ZM10.7227 21.8457C10.6416 21.8667 10.6416 21.8667 10.5589 21.8881C9.11962 22.282 8.1485 23.2417 7.41215 24.5117C6.09599 26.8677 5.6936 29.6354 5.67581 32.3022C5.67452 32.4431 5.67239 32.5841 5.6694 32.725C5.64254 34.0052 5.77112 35.1596 6.64066 36.1719C6.68326 36.2221 6.72586 36.2724 6.76975 36.3242C7.74922 37.3866 9.14879 37.6083 10.5256 37.665C11.0907 37.6793 11.6559 37.6775 12.2213 37.6765C12.4093 37.6767 12.5973 37.677 12.7854 37.6773C13.2397 37.6779 13.694 37.6778 14.1482 37.6774C14.518 37.677 14.8878 37.677 15.2575 37.6772C15.337 37.6772 15.337 37.6772 15.418 37.6772C15.5257 37.6773 15.6333 37.6773 15.7409 37.6774C16.7464 37.6778 17.7518 37.6773 18.7572 37.6765C19.6168 37.6758 20.4765 37.6759 21.3361 37.6766C22.3383 37.6775 23.3406 37.6778 24.3428 37.6773C24.45 37.6773 24.5572 37.6772 24.6644 37.6772C24.7171 37.6771 24.7699 37.6771 24.8242 37.6771C25.1928 37.6769 25.5614 37.6772 25.93 37.6775C26.4276 37.678 26.9252 37.6777 27.4229 37.6768C27.6044 37.6766 27.786 37.6766 27.9676 37.677C30.7689 37.6929 30.7689 37.6929 33.1495 36.3428C34.2582 35.1592 34.3263 33.7088 34.2774 32.1728C34.2756 32.1142 34.2738 32.0555 34.2719 31.9951C34.1707 28.8424 33.6377 25.1385 31.2433 22.8497C30.4073 22.1393 29.2547 21.6677 28.1431 21.6846C27.7623 21.7592 27.4534 22.0107 27.1387 22.2266C26.9854 22.3277 26.832 22.4287 26.6785 22.5296C26.6047 22.5786 26.531 22.6275 26.455 22.678C23.9632 24.3139 20.9186 25.1111 17.9584 24.5386C15.9289 24.1015 14.2321 23.2397 12.527 22.0749C11.8953 21.6551 11.4497 21.6576 10.7227 21.8457Z" fill="white"/>
<path d="M25.6983 1.98701C26.3727 2.55224 26.9671 3.12566 27.5 3.82814C27.5472 3.88977 27.5945 3.9514 27.6431 4.0149C28.5373 5.23397 29.0303 6.56284 29.2969 8.04689C29.3114 8.12685 29.3259 8.20681 29.3408 8.2892C29.6358 10.9175 29.0351 13.4378 27.4219 15.5469C27.1979 15.8181 26.9624 16.0745 26.7188 16.3281C26.6529 16.3989 26.587 16.4697 26.5192 16.5427C26.0036 17.0814 25.469 17.4905 24.8438 17.8906C24.7788 17.9339 24.7138 17.9772 24.6469 18.0219C23.2049 18.945 21.4385 19.3298 19.7461 19.3213C19.6541 19.3209 19.5621 19.3205 19.4674 19.3201C18.7354 19.3104 18.053 19.2416 17.3438 19.0625C17.2665 19.043 17.2665 19.043 17.1876 19.0231C15.7781 18.656 14.4441 17.9587 13.3804 16.962C13.2327 16.8244 13.0824 16.698 12.9248 16.5723C12.5487 16.2519 12.2537 15.8585 11.9531 15.4688C11.9064 15.4085 11.8597 15.3483 11.8115 15.2863C10.5942 13.635 10.046 11.7319 10.0488 9.69239C10.0489 9.63965 10.0489 9.5869 10.049 9.53256C10.0541 8.14306 10.2719 6.88845 10.8594 5.62501C10.8946 5.54525 10.9299 5.46549 10.9662 5.38331C11.718 3.7693 13.0461 2.36516 14.5313 1.40626C14.5999 1.36135 14.6686 1.31643 14.7394 1.27015C18.0468 -0.779915 22.6866 -0.462841 25.6983 1.98701ZM14.19 4.89019C12.7361 6.56713 12.405 8.45493 12.5 10.625C12.5659 11.3746 12.7982 12.0604 13.125 12.7344C13.1605 12.8075 13.1959 12.8806 13.2324 12.9559C14.1038 14.6467 15.6566 15.982 17.4619 16.5744C19.2647 17.1128 21.2754 17.0283 22.9688 16.1719C23.6674 15.7913 24.2726 15.3193 24.8438 14.7656C24.8906 14.7245 24.9374 14.6835 24.9857 14.6411C26.166 13.5676 26.8835 11.8466 26.9628 10.277C27.0246 8.23668 26.5709 6.50543 25.2344 4.92189C25.1748 4.84293 25.1151 4.76398 25.0537 4.68263C23.9069 3.4291 22.2604 2.51152 20.549 2.40781C18.026 2.30403 15.9181 2.98684 14.19 4.89019Z" fill="white"/>
</g>
<defs>
<clipPath id="clip0_1_67">
<rect width="40" height="40" fill="white"/>
</clipPath>
</defs>
</svg>
